<svg xmlns="http://www.w3.org/2000/svg" version="1.1" xmlns:xlink="http://www.w3.org/1999/xlink" xmlns:svgjs="http://svgjs.com/svgjs" width="512" height="512" x="0" y="0" viewBox="0 0 24 24" style="enable-background:new 0 0 512 512" xml:space="preserve" class=""><g><path clip-rule="evenodd" d="m5.41959 3.23866c.81059-.18014 1.77598-.23866 2.89241-.23866h1.61763c1.00307 0 1.93977.5013 2.49617 1.3359l.8125 1.2188c.1855.27818.4977.4453.8321.4453h5.0554c1.5975 0 2.8923 1.26115 2.8771 2.8852-.0182 1.934-.0029 3.8687-.0029 5.8028 0 1.1164-.0585 2.0818-.2387 2.8924-.1826.822-.5034 1.5447-1.0698 2.1111s-1.2891.8872-2.1111 1.0698c-.8106.1802-1.776.2387-2.8924.2387h-7.376c-1.11643 0-2.08182-.0585-2.89241-.2387-.82195-.1826-1.54471-.5034-2.11111-1.0698-.56639-.5664-.88715-1.2891-1.06982-2.1111-.18014-.8106-.23866-1.776-.23866-2.8924v-5.376c0-1.11643.05852-2.08182.23866-2.89241.18267-.82195.50343-1.54471 1.06982-2.11111.5664-.56639 1.28916-.88715 2.11111-1.06982zm7.58041 7.76134c0-.5523-.4477-1-1-1s-1 .4477-1 1v3.0858l-.7929-.7929c-.39052-.3905-1.02368-.3905-1.41421 0-.39052.3905-.39052 1.0237 0 1.4142l2.43751 2.4375c.0107.0107.0216.0212.0327.0314.1828.1991.4452.324.7369.324s.5541-.1249.7369-.324c.0111-.0102.022-.0207.0327-.0314l2.4375-2.4375c.3905-.3905.3905-1.0237 0-1.4142s-1.0237-.3905-1.4142 0l-.7929.7929z" fill="#D9232E" fill-rule="evenodd" data-original="#000000" class=""></path></g></svg>