<svg width="382" height="120" viewBox="0 0 382 120" fill="none" xmlns="http://www.w3.org/2000/svg">
<g clip-path="url(#clip0_1012_6495)">
<path d="M115.5 75.8963V44.0965C115.5 34.0245 110.097 24.7084 101.33 19.676L73.67 3.7797C64.9033 -1.2599 54.104 -1.2599 45.3372 3.7797L17.67 19.676C8.90325 24.7156 3.5 34.0245 3.5 44.0965V75.8963C3.5 85.9683 8.90325 95.2844 17.67 100.317L45.3372 116.213C54.104 121.253 64.9033 121.253 73.67 116.213L101.337 100.317C110.104 95.2772 115.507 85.9683 115.507 75.8963H115.5Z" fill="#D9232E"/>
<path d="M78.8852 65.7595L50.2993 49.3305C48.1148 48.0778 46.6175 45.9179 46.2125 43.4413L44.4909 32.923C43.3553 25.9683 50.8418 20.8207 56.9683 24.3413L86.2342 41.1591C88.5705 42.4982 90.1112 44.874 90.3861 47.545L91.4277 57.6674C92.122 64.4492 84.8092 69.1577 78.8852 65.7523V65.7595Z" fill="white"/>
<path d="M62.039 95.6516L33.4531 79.2225C31.2686 77.9698 29.7713 75.8099 29.3663 73.3333L27.6447 62.815C26.5091 55.8603 33.9956 50.7128 40.1221 54.2333L69.388 71.0511C71.7243 72.3902 73.265 74.766 73.5399 77.437L74.5815 87.5594C75.2759 94.3413 67.963 99.0497 62.039 95.6444V95.6516Z" fill="white"/>
</g>
<path d="M186.96 48H196.72V88H186.96L186.52 83.04C185.427 84.8267 183.973 86.28 182.16 87.4C180.373 88.4933 178.253 89.04 175.8 89.04C172.84 89.04 170.067 88.48 167.48 87.36C164.893 86.24 162.613 84.6933 160.64 82.72C158.693 80.7467 157.16 78.4667 156.04 75.88C154.947 73.2933 154.4 70.52 154.4 67.56C154.4 64.7067 154.92 62.0267 155.96 59.52C157.027 57.0133 158.507 54.8133 160.4 52.92C162.293 51.0267 164.48 49.5467 166.96 48.48C169.44 47.4133 172.107 46.88 174.96 46.88C177.6 46.88 179.96 47.4667 182.04 48.64C184.147 49.8133 185.933 51.3067 187.4 53.12L186.96 48ZM175.56 79.64C177.64 79.64 179.48 79.12 181.08 78.08C182.68 77.04 183.933 75.64 184.84 73.88C185.747 72.0933 186.2 70.1333 186.2 68C186.2 65.84 185.747 63.88 184.84 62.12C183.933 60.3333 182.667 58.92 181.04 57.88C179.44 56.84 177.613 56.32 175.56 56.32C173.507 56.32 171.627 56.8533 169.92 57.92C168.24 58.96 166.893 60.36 165.88 62.12C164.893 63.88 164.4 65.84 164.4 68C164.4 70.16 164.907 72.12 165.92 73.88C166.933 75.64 168.28 77.04 169.96 78.08C171.667 79.12 173.533 79.64 175.56 79.64ZM241.531 62.72V88H231.771V65.28C231.771 63.7067 231.384 62.28 230.611 61C229.837 59.6933 228.797 58.6667 227.491 57.92C226.211 57.1467 224.784 56.76 223.211 56.76C221.637 56.76 220.197 57.1467 218.891 57.92C217.611 58.6667 216.584 59.6933 215.811 61C215.064 62.28 214.691 63.7067 214.691 65.28V88H204.931L204.891 48H214.651L214.691 51.56C216.051 50.12 217.677 48.9867 219.571 48.16C221.464 47.3067 223.504 46.88 225.691 46.88C228.597 46.88 231.251 47.6 233.651 49.04C236.051 50.4533 237.957 52.36 239.371 54.76C240.811 57.1333 241.531 59.7867 241.531 62.72ZM249.7 48H259.46V88H249.7V48ZM254.66 42.84C253.22 42.84 252.007 42.3733 251.02 41.44C250.033 40.48 249.54 39.28 249.54 37.84C249.54 36.4267 250.033 35.24 251.02 34.28C252.007 33.32 253.207 32.84 254.62 32.84C256.033 32.84 257.22 33.32 258.18 34.28C259.167 35.24 259.66 36.4267 259.66 37.84C259.66 39.28 259.18 40.48 258.22 41.44C257.26 42.3733 256.073 42.84 254.66 42.84ZM269.431 88V28H279.191V88H269.431ZM318.541 48H328.301V88H318.541L318.101 83.04C317.008 84.8267 315.555 86.28 313.741 87.4C311.955 88.4933 309.835 89.04 307.381 89.04C304.421 89.04 301.648 88.48 299.061 87.36C296.475 86.24 294.195 84.6933 292.221 82.72C290.275 80.7467 288.741 78.4667 287.621 75.88C286.528 73.2933 285.981 70.52 285.981 67.56C285.981 64.7067 286.501 62.0267 287.541 59.52C288.608 57.0133 290.088 54.8133 291.981 52.92C293.875 51.0267 296.061 49.5467 298.541 48.48C301.021 47.4133 303.688 46.88 306.541 46.88C309.181 46.88 311.541 47.4667 313.621 48.64C315.728 49.8133 317.515 51.3067 318.981 53.12L318.541 48ZM307.141 79.64C309.221 79.64 311.061 79.12 312.661 78.08C314.261 77.04 315.515 75.64 316.421 73.88C317.328 72.0933 317.781 70.1333 317.781 68C317.781 65.84 317.328 63.88 316.421 62.12C315.515 60.3333 314.248 58.92 312.621 57.88C311.021 56.84 309.195 56.32 307.141 56.32C305.088 56.32 303.208 56.8533 301.501 57.92C299.821 58.96 298.475 60.36 297.461 62.12C296.475 63.88 295.981 65.84 295.981 68C295.981 70.16 296.488 72.12 297.501 73.88C298.515 75.64 299.861 77.04 301.541 78.08C303.248 79.12 305.115 79.64 307.141 79.64ZM357.986 46.88C361.88 46.88 365.426 47.8267 368.626 49.72C371.826 51.6133 374.373 54.16 376.266 57.36C378.16 60.5333 379.106 64.0533 379.106 67.92C379.106 70.8267 378.56 73.56 377.466 76.12C376.373 78.68 374.853 80.9333 372.906 82.88C370.986 84.8 368.746 86.3067 366.186 87.4C363.653 88.4933 360.92 89.04 357.986 89.04C355.48 89.04 353.253 88.48 351.306 87.36C349.386 86.2133 347.773 84.7333 346.466 82.92V88H336.706V28H346.466V53C347.773 51.1867 349.386 49.72 351.306 48.6C353.253 47.4533 355.48 46.88 357.986 46.88ZM357.866 79.6C359.946 79.6 361.826 79.08 363.506 78.04C365.213 76.9733 366.573 75.56 367.586 73.8C368.6 72.04 369.106 70.08 369.106 67.92C369.106 65.7867 368.6 63.84 367.586 62.08C366.573 60.2933 365.213 58.88 363.506 57.84C361.8 56.8 359.92 56.28 357.866 56.28C355.84 56.28 354.026 56.8133 352.426 57.88C350.826 58.92 349.573 60.3333 348.666 62.12C347.76 63.88 347.306 65.8133 347.306 67.92C347.306 70.08 347.76 72.0533 348.666 73.84C349.573 75.6 350.826 77 352.426 78.04C354.026 79.08 355.84 79.6 357.866 79.6Z" fill="white"/>
<defs>
<clipPath id="clip0_1012_6495">
<rect width="112" height="120" fill="white" transform="translate(3.5)"/>
</clipPath>
</defs>
</svg>
