<svg width="60" height="60" viewBox="0 0 60 60" fill="none" xmlns="http://www.w3.org/2000/svg">
<g clip-path="url(#clip0_1013_6503)">
<path d="M57.75 37.9482V22.0482C57.75 17.0122 55.0484 12.3542 50.665 9.83801L36.835 1.88985C32.4516 -0.62995 27.052 -0.62995 22.6686 1.88985L8.83499 9.83801C4.45163 12.3578 1.75 17.0122 1.75 22.0482V37.9482C1.75 42.9842 4.45163 47.6422 8.83499 50.1584L22.6686 58.1066C27.052 60.6264 32.4516 60.6264 36.835 58.1066L50.6686 50.1584C55.052 47.6386 57.7536 42.9842 57.7536 37.9482H57.75Z" fill="white"/>
<path d="M39.4425 32.8798L25.1495 24.6652C24.0573 24.0389 23.3086 22.959 23.1061 21.7207L22.2453 16.4615C21.6775 12.9842 25.4208 10.4104 28.484 12.1706L43.117 20.5796C44.2851 21.2491 45.0555 22.437 45.1929 23.7725L45.7137 28.8337C46.0609 32.2246 42.4045 34.5788 39.4425 32.8762V32.8798Z" fill="#D9232E"/>
<path d="M31.0194 47.8258L16.7264 39.6113C15.6342 38.9849 14.8855 37.905 14.683 36.6667L13.8223 31.4075C13.2544 27.9302 16.9977 25.3564 20.061 27.1167L34.6939 35.5256C35.862 36.1952 36.6324 37.3831 36.7698 38.7186L37.2906 43.7797C37.6378 47.1707 33.9814 49.5249 31.0194 47.8222V47.8258Z" fill="#D9232E"/>
</g>
<defs>
<clipPath id="clip0_1013_6503">
<rect width="56" height="60" fill="white" transform="translate(1.75)"/>
</clipPath>
</defs>
</svg>
