<svg xmlns="http://www.w3.org/2000/svg" version="1.1" xmlns:xlink="http://www.w3.org/1999/xlink" xmlns:svgjs="http://svgjs.com/svgjs" width="512" height="512" x="0" y="0" viewBox="0 0 24 24" style="enable-background:new 0 0 512 512" xml:space="preserve" class=""><g><path clip-rule="evenodd" d="m13.3951 1.32445c-.8787-.4326-1.9115-.432601-2.7902 0l-8.75201 4.30902c-1.137183.55988-1.13719 2.17317 0 2.73306l8.75201 4.30897c.8787.4327 1.9115.4327 2.7902.0001l8.752-4.30907c1.1372-.55988 1.1372-2.17317 0-2.73306zm-11.492 9.28425c.13926-.0686.30246-.0686.44171 0l8.26009 4.0668c.8787.4326 1.9115.4326 2.7902 0l8.2601-4.0668c.1392-.0686.3024-.0686.4417 0l.0502.0247c1.1372.5599 1.1372 2.1732 0 2.7331l-8.752 4.309c-.8787.4326-1.9115.4326-2.7902 0l-8.75201-4.309c-1.13719-.5599-1.137183-2.1732 0-2.7331zm.44171 5.0001c-.13925-.0686-.30245-.0686-.44171 0l-.05021.0247c-1.137183.5599-1.13719 2.1732 0 2.7331l8.75201 4.309c.8787.4326 1.9115.4326 2.7902 0l8.752-4.309c1.1372-.5599 1.1372-2.1732 0-2.7331l-.0502-.0247c-.1393-.0686-.3025-.0686-.4417 0l-8.2601 4.0668c-.8787.4326-1.9115.4326-2.7902 0z" fill="#D9232E" fill-rule="evenodd" data-original="#000000" class=""></path></g></svg>