<svg xmlns="http://www.w3.org/2000/svg" version="1.1" xmlns:xlink="http://www.w3.org/1999/xlink" xmlns:svgjs="http://svgjs.com/svgjs" width="512" height="512" x="0" y="0" viewBox="0 0 512 512" style="enable-background:new 0 0 512 512" xml:space="preserve"><g><g><g><path d="m480.303 381.025h-448.604c-6.955 0-12.613-5.952-12.613-13.268v-257.642c0-7.316 5.658-13.268 12.613-13.268h448.604c6.954 0 12.611 5.952 12.611 13.268v257.643c0 7.315-5.657 13.267-12.611 13.267zm-446.217-15h443.828v-254.178h-443.828z" fill="#ffffff" data-original="#000000"></path></g><g><path d="m480.303 381.025h-448.605c-6.955 0-12.613-5.951-12.613-13.267v-23.947c0-4.143 3.358-7.5 7.5-7.5h458.829c4.143 0 7.5 3.357 7.5 7.5v23.947c0 7.316-5.657 13.267-12.611 13.267zm-446.218-15h443.829v-14.714h-443.829z" fill="#ffffff" data-original="#000000"></path></g><g><g><path d="m76.597 415.153c-1.564 0-3.142-.487-4.49-1.497-3.315-2.483-3.99-7.184-1.507-10.499l25.563-34.128c2.482-3.316 7.183-3.989 10.499-1.507 3.315 2.483 3.99 7.184 1.507 10.499l-25.563 34.128c-1.474 1.967-3.728 3.004-6.009 3.004z" fill="#ffffff" data-original="#000000"></path></g><g><path d="m435.404 415.153c-2.282 0-4.535-1.037-6.009-3.004l-25.563-34.128c-2.483-3.315-1.809-8.016 1.507-10.499 3.313-2.482 8.016-1.808 10.499 1.507l25.563 34.128c2.483 3.315 1.809 8.016-1.507 10.499-1.347 1.01-2.925 1.497-4.49 1.497z" fill="#ffffff" data-original="#000000"></path></g></g><g><g><path d="m188.164 215.465c-1.815 0-3.634-.654-5.075-1.98-3.049-2.804-3.247-7.548-.443-10.597 18.822-20.464 45.559-32.201 73.354-32.201 27.797 0 54.534 11.737 73.354 32.201 2.804 3.049 2.605 7.793-.443 10.597-3.05 2.804-7.793 2.605-10.598-.444-15.987-17.384-38.7-27.354-62.313-27.354-23.612 0-46.325 9.971-62.314 27.355-1.478 1.608-3.497 2.423-5.522 2.423z" fill="#ffffff" data-original="#000000"></path></g><g><path d="m289.779 247.304c-2.047 0-4.087-.833-5.567-2.473-7.193-7.963-17.476-12.53-28.211-12.53s-21.018 4.567-28.212 12.53c-2.777 3.073-7.519 3.313-10.593.538-3.074-2.777-3.314-7.52-.538-10.593 10.033-11.105 24.373-17.475 39.343-17.475 14.971 0 29.31 6.37 39.342 17.475 2.776 3.074 2.536 7.816-.538 10.593-1.435 1.297-3.233 1.935-5.026 1.935z" fill="#ffffff" data-original="#000000"></path></g><g><path d="m256 278.899c-1.97 0-3.91-.8-5.3-2.199-1.4-1.391-2.2-3.32-2.2-5.301 0-1.97.8-3.909 2.2-5.3 1.39-1.399 3.33-2.2 5.3-2.2 1.979 0 3.91.801 5.3 2.2 1.4 1.391 2.2 3.33 2.2 5.3 0 1.98-.8 3.91-2.2 5.301-1.39 1.4-3.321 2.199-5.3 2.199z" fill="#ffffff" data-original="#000000"></path></g></g></g></g></svg>