<svg xmlns="http://www.w3.org/2000/svg" version="1.1" xmlns:xlink="http://www.w3.org/1999/xlink" xmlns:svgjs="http://svgjs.com/svgjs" width="512" height="512" x="0" y="0" viewBox="0 0 64 54.6" style="enable-background:new 0 0 512 512" xml:space="preserve" class=""><g>
<style type="text/css">
	.st0{fill:url(#SVGID_1_);}
</style>
<linearGradient id="SVGID_1_" gradientUnits="userSpaceOnUse" x1="48.1915" y1="54.0445" x2="15.8085" y2="-2.0445" gradientTransform="matrix(1 0 0 -1 0 50)">
	<stop offset="5.586592e-03" style="stop-color:#C7C6FF"></stop>
	<stop offset="1" style="stop-color:#2B29D5"></stop>
</linearGradient>
<path class="" d="M52,0H12C5.4,0,0,5.4,0,12v24c0,6.6,5.4,12,12,12h8.9c0.7,0,1.4,0.3,1.9,0.7l5.3,4.5c2.2,1.9,5.5,1.9,7.8,0  l5.3-4.5c0.5-0.5,1.2-0.7,1.9-0.7H52c6.6,0,12-5.4,12-12V12C64,5.4,58.6,0,52,0z M12,38h-1c-1.7,0-3-1.3-3-3s1.3-3,3-3h1  c1.7,0,3,1.3,3,3S13.7,38,12,38z M30,38h-6c-1.7,0-3-1.3-3-3s1.3-3,3-3h6c1.7,0,3,1.3,3,3S31.7,38,30,38z M11,26c-1.7,0-3-1.3-3-3  s1.3-3,3-3h26c1.7,0,3,1.3,3,3s-1.3,3-3,3H11z M53,38H42c-1.7,0-3-1.3-3-3s1.3-3,3-3h11c1.7,0,3,1.3,3,3S54.7,38,53,38z M53,26h-4  c-1.7,0-3-1.3-3-3s1.3-3,3-3h4c1.7,0,3,1.3,3,3S54.7,26,53,26z" fill="#D9232E" data-original="#000000"></path>
</g></svg>