<svg xmlns="http://www.w3.org/2000/svg" version="1.1" xmlns:xlink="http://www.w3.org/1999/xlink" xmlns:svgjs="http://svgjs.com/svgjs" width="512" height="512" x="0" y="0" viewBox="0 0 512 512" style="enable-background:new 0 0 512 512" xml:space="preserve" class=""><g><g id="g2127" clip-rule="evenodd" fill-rule="evenodd" stroke-linecap="round" stroke-linejoin="round" stroke-miterlimit="10"><path id="path90616" d="m60 441a11 11 0 0 0 -11 11 11 11 0 0 0 11 11h392a11 11 0 0 0 11-11 11 11 0 0 0 -11-11z" fill="#D9232E" data-original="#000000" class=""></path><path id="path2104" d="m60 49c-33.049145 0-60 26.948904-60 59.99804v245.00195c0 33.04916 26.950855 60 60 60h392c33.04915 0 60-26.95084 60-60v-245.00195c0-33.049136-26.95085-59.99804-60-59.99804zm127.29492 82.85937c.94993.0128 1.90891.0795 2.87305.20117a11.000992 11.001038 0 0 1 .004 0c2.92941.37106 5.77556 1.23495 8.41601 2.55664l.0117.006 134.86133 67.4082c23.71026 11.79684 23.71026 47.13677 0 58.9336l-134.87305 67.41211c-16.96908 8.4824-37.82798-4.40581-37.83398-23.37696a11.000992 11.001038 0 0 1 0-.004v-48.99805-49-48.99609c-.005-13.60499 10.7085-24.75312 23.7207-26.02344.92944-.0907 1.87038-.13194 2.82031-.11914z" stroke-width="22" fill="#D9232E" data-original="#000000" class=""></path></g></g></svg>