<svg xmlns="http://www.w3.org/2000/svg" version="1.1" xmlns:xlink="http://www.w3.org/1999/xlink" xmlns:svgjs="http://svgjs.com/svgjs" width="512" height="512" x="0" y="0" viewBox="0 0 32 32" style="enable-background:new 0 0 512 512" xml:space="preserve" class=""><g><path d="m22.5 14.789978c-.9400024 0-1.8300171-.3599854-2.5-1.0299683l-1.6300049-1.6300049c-.1599731.1099854-.3499756.1699829-.5599976.1699829h-2.7299805c-.5499878 0-1-.4500122-1-1 0-.5599976.4500122-1 1-1h1.4699707l-.3099976-.3099976c-1.5100098-1.5200195-2.0200195-3.6600342-1.5200195-5.5999756h-8.3799437c-1.5500488 0-2.8099976 1.2699585-2.8099976 2.8199463v19.9700317c0 1.5599977 1.2599487 2.8200075 2.8099976 2.8200075h16.3499756c1.5499877 0 2.8099975-1.2600098 2.8099975-2.8200073v-13.9199829l-.5.5c-.6699829.6699829-1.5599976 1.0299682-2.5 1.0299682zm-10.1699829 8.0399781-1.9500122 1.9500122c-.2000122.2000122-.460022.2999878-.710022.2999878-.2600098 0-.5100098-.0999756-.7099609-.2999878l-1.1100464-1.1099854c-.3899536-.3900146-.3899536-1.0200195 0-1.4099731.3900146-.3900146 1.0200195-.3900146 1.4100342 0l.4099731.3999634 1.25-1.25c.3900146-.3900146 1.0200195-.3900146 1.4100342.0100098.3899536.3900146.3899536 1.0200194 0 1.4099731zm0-5.8999634-1.9500122 1.9500122c-.2000122.1999512-.460022.289978-.710022.289978-.2600098 0-.5100098-.0900269-.7099609-.289978l-1.1100464-1.1100464c-.3899536-.3899536-.3899536-1.0199585 0-1.4099731.3900146-.4000244 1.0200195-.3900146 1.4100342-.0100098l.4099731.4100342 1.25-1.25c.3900146-.3900146 1.0200195-.3900146 1.4100342 0 .3899536.3899536.3899536 1.0299682 0 1.4199829zm0-5.9000244-1.9500122 1.9500122c-.2000122.2000122-.460022.289978-.710022.289978-.2600098 0-.5100098-.0899658-.7099609-.289978l-1.1100464-1.1099854c-.3899536-.3900146-.3899536-1.0300293 0-1.4199829.3900146-.3900146 1.0200195-.3900146 1.4100342 0l.4099731.4099731 1.25-1.25c.3900146-.3900146 1.0200195-.3900146 1.4100342 0 .3899536.3900147.3899536 1.0300293 0 1.419983zm8.2000122 13.0700073h-5.4400024c-.5599976 0-1-.4500122-1-1s.4400024-1 1-1h5.4400024c.5499878 0 1 .4500122 1 1s-.4500122 1-1 1zm0-5.8999634h-5.4500122c-.5499878 0-1-.4500122-1-1 0-.5500488.4500122-1 1-1h5.4500122c.5499878 0 1 .4499512 1 1 0 .5499878-.4500122 1-1 1z" fill="#D9232E" data-original="#000000"></path><path d="m27.3261719 3.1083984c-1.3076172-1.2929688-3.3310547-1.440918-4.8203125-.4599609-1.4599609-.9829102-3.5800781-.7954102-4.8525391.4799805-1.4960938 1.4995117-1.4960938 3.9404297.0019531 5.4433594l3.765625 3.7749023c.2880859.2890625.671875.4482422 1.0791016.4482422s.7910156-.1591797 1.0791016-.4482422l3.7675781-3.7773438c.7285156-.730957 1.1279297-1.7026367 1.1240234-2.7358398-.0039062-1.0327149-.4101562-2.0004883-1.1445312-2.7250977z" fill="#D9232E" data-original="#000000"></path></g></svg>